# xmcd
#
# Track frame offsets:
#	150
#	18848
#	33710
#	51757
#	70204
#	87590
#	107167
#	122791
#	137020
#	154598
#	179574
#	199526
#	218126
#	246799
#	262101
#	280040
#	299279
#	319101
#	337902
#
# Disc length: 4663 seconds
#
# Revision: 1
# Processed by: cddbd v1.5.2PL0 Copyright (c) Steve Scherf et al.
# Submitted via: audiograbber 1.83.01
#
DISCID=1d123513
DTITLE=Blue Rose Collection -  Best Of (Vol.1)
DYEAR=2015
DGENRE=Rock
TTITLE0=Maroon Town - Are You Ready
TTITLE1=Trippa - Where Are You
TTITLE2=Saltgrass - Do You Wanna Get Off
TTITLE3=Pallmall - Is She All You Want?
TTITLE4=Flexyman - On The Road
TTITLE5=Gifty Naa D.K. - Anunyam
TTITLE6=Le Hammond Inferno - Try To Overcome...
TTITLE7=Calexico - Minas De Cobre
TTITLE8=Burning Rubber Dolls - Weary Blues From Waiting
TTITLE9=Santiago Jimenez Jr. - La Paloma
TTITLE10=Todd Thibaud - Give Back My Heart
TTITLE11=Big In Iowa - September Song
TTITLE12=Naked Barbies - Turlock
TTITLE13=Continental Drifters - Watermark
TTITLE14=Hensley Sturgis - The Ride
TTITLE15=Jolene - Constantinoble
TTITLE16=Hooblers -  Restless Horizon
TTITLE17=Bottle Rockets - Sometimes Found
TTITLE18=Jim Roll - 1955
EXTD=
EXTT0=
EXTT1=
EXTT2=
EXTT3=
EXTT4=
EXTT5=
EXTT6=
EXTT7=
EXTT8=
EXTT9=
EXTT10=
EXTT11=
EXTT12=
EXTT13=
EXTT14=
EXTT15=
EXTT16=
EXTT17=
EXTT18=
PLAYORDER=
